<svg xmlns="http://www.w3.org/2000/svg" width="920" height="520" viewBox="0 0 920 520">
  <rect width="920" height="520" rx="28" fill="#fbfaf4"/>
  <text x="46" y="58" font-family="PingFang SC, Noto Sans SC, sans-serif" font-size="30" font-weight="800" fill="#14292b">Judge 与人审校准闭环</text>
  <text x="46" y="91" font-family="PingFang SC, Noto Sans SC, sans-serif" font-size="16" fill="#607d80">Judge 不是裁判终点，而是需要持续校准的测量仪器。</text>
  <g font-family="PingFang SC, Noto Sans SC, sans-serif">
    <circle cx="460" cy="270" r="145" fill="#ffffff" stroke="#b8c9c7" stroke-width="2"/>
    <rect x="370" y="115" width="180" height="56" rx="16" fill="#eef6f4" stroke="#1a6d72"/><text x="412" y="150" font-size="18" font-weight="800" fill="#0f5558">线上样本</text>
    <rect x="620" y="245" width="180" height="56" rx="16" fill="#fff6e8" stroke="#d59745"/><text x="654" y="280" font-size="18" font-weight="800" fill="#8b5a16">Judge 打分</text>
    <rect x="370" y="370" width="180" height="56" rx="16" fill="#f5e4dc" stroke="#cb5d31"/><text x="410" y="405" font-size="18" font-weight="800" fill="#7f2f3a">人审抽检</text>
    <rect x="120" y="245" width="180" height="56" rx="16" fill="#eef2ff" stroke="#6978b8"/><text x="160" y="280" font-size="18" font-weight="800" fill="#414d89">反例池</text>
    <path d="M550 143c85 20 135 62 158 102M710 301c-23 50-75 87-160 97M370 398c-85-15-135-53-160-97M210 245c25-65 85-100 160-102" fill="none" stroke="#607d80" stroke-width="3" stroke-linecap="round"/>
    <text x="360" y="270" font-size="22" font-weight="800" fill="#14292b">一致性监控</text>
    <text x="332" y="304" font-size="16" fill="#36595b">human/judge agreement</text>
  </g>
</svg>
